<svg xmlns="http://www.w3.org/2000/svg" width="140.98" height="140.98" data-name="Livello 1" viewBox="0 0 140.98 140.98"><path d="M34.926 84.845a2.17 2.17 0 0 1 2.882-1.056 2.173 2.173 0 0 1-1.827 3.943 2.173 2.173 0 0 1-1.055-2.887m-17.41 26.447 8.043-14.435 10.183 4.723-5.83 15.464c-.46 1.222-.429.932-.791 2.01l-12.63-5.987c.59-.973.388-.634 1.024-1.775m8.487-15.213 10.124 4.698.207-.546-10.047-4.66zm.656-1.355 10.002 4.639 7.772-16.747-10.004-4.641zm8.12-17.535.245-.525 10.001 4.639-.245.527zm.66-1.389 18.467-39.797 10 4.64L45.44 80.44zm19.106-40.997.245-.525 10.002 4.638-.245.528zm.71-1.598.558-4.644c.092-.707.566-1.218 1.326-.866l5.62 2.608 5.62 2.608c.762.354.674 1.046.195 1.57l-3.183 3.424zm-26.422 87.38-13.301-6.171q-.157.252-.313.493l13.438 6.237zm-.89 2.206L14.4 116.506c-5.402 8.314-8.917 9.594-12.77 9.684a1.15 1.15 0 0 0-1.524.557 1.15 1.15 0 0 0 .557 1.523l13.582 6.302 13.584 6.302a1.147 1.147 0 0 0 .966-2.08c-2.42-3.002-3.713-6.512-.852-16.004m26.316-79.615a2.173 2.173 0 1 0 3.94 1.83 2.173 2.173 0 0 0-3.94-1.83m-4.654 10.027a2.175 2.175 0 0 0 1.057 2.885 2.17 2.17 0 0 0 2.884-1.057 2.173 2.173 0 0 0-3.941-1.829M44.952 63.23a2.173 2.173 0 1 0 3.943 1.826 2.173 2.173 0 0 0-3.943-1.826m31.11-45.487a.836.836 0 0 0-.405-1.11l-5.395-2.503-5.395-2.504a.84.84 0 0 0-1.11.407.84.84 0 0 0 .406 1.11l5.395 2.503 5.397 2.502a.834.834 0 0 0 1.108-.405m-.94 2.028a.84.84 0 0 1-1.11.407l-5.395-2.504-5.396-2.503a.835.835 0 0 1 .704-1.515l5.396 2.502 5.393 2.503a.84.84 0 0 1 .408 1.11m-.942 2.03a.84.84 0 0 1-1.11.405l-5.394-2.503L62.28 17.2a.836.836 0 0 1 .703-1.515l5.397 2.503 5.395 2.503c.417.192.6.693.406 1.11m-.941 2.03a.84.84 0 0 1-1.11.405l-5.396-2.503-5.392-2.505a.835.835 0 1 1 .7-1.515l5.397 2.503 5.395 2.503a.84.84 0 0 1 .406 1.111m-.942 2.029a.84.84 0 0 0-.406-1.112l-5.395-2.503-5.395-2.501a.835.835 0 1 0-.703 1.515l5.396 2.503 5.394 2.502a.836.836 0 0 0 1.11-.405m-.942 2.029a.837.837 0 0 0-.406-1.11l-5.397-2.503-5.393-2.503a.835.835 0 0 0-.704 1.514l5.395 2.504 5.395 2.503a.837.837 0 0 0 1.11-.405m-.942 2.028a.836.836 0 0 0-.406-1.11l-5.393-2.503-5.397-2.503a.84.84 0 0 0-1.11.406.84.84 0 0 0 .408 1.11l5.395 2.502 5.393 2.504a.836.836 0 0 0 1.11-.406m-.94 2.028a.836.836 0 0 0-.406-1.108l-5.397-2.505-5.395-2.503a.84.84 0 0 0-1.109.408.84.84 0 0 0 .406 1.11l5.397 2.502 5.395 2.503a.84.84 0 0 0 1.109-.407" style="fill-rule:evenodd;fill:#000;fill-opacity:1" transform="translate(31.022)"/><path d="m104.004 19.786-2.68-1.285 5.132-13.52 4.869 2.333z" style="fill:#000;fill-opacity:1" transform="translate(-1.366 -4.982)"/></svg>